<?xml version="1.0" standalone="no"?>
<!DOCTYPE svg PUBLIC "-//W3C//DTD SVG 20010904//EN"
 "http://www.w3.org/TR/2001/REC-SVG-20010904/DTD/svg10.dtd">
<svg version="1.0" xmlns="http://www.w3.org/2000/svg"
 width="260.000000pt" height="260.000000pt" viewBox="0 0 260.000000 260.000000"
 preserveAspectRatio="xMidYMid meet">
<metadata>
Created by potrace 1.11, written by Peter Selinger 2001-2013
</metadata>
<g transform="translate(0.000000,260.000000) scale(0.100000,-0.100000)"
fill="#000000" stroke="none">
<path d="M639 2293 c-7 -49 -12 -151 -12 -228 2 -206 36 -321 134 -445 24 -30
35 -50 25 -47 -42 16 -174 18 -248 3 -153 -30 -338 -124 -518 -265 -30 -24
-38 -15 125 -126 248 -167 450 -224 634 -178 24 6 23 3 -15 -40 -115 -131
-158 -309 -135 -562 6 -66 14 -135 18 -154 5 -32 7 -33 47 -29 23 3 93 30 157
60 243 116 376 236 437 398 16 44 22 51 27 35 43 -126 135 -244 256 -326 88
-59 303 -161 353 -166 l43 -5 12 89 c6 49 11 150 11 225 0 206 -32 309 -134
432 -38 46 -39 49 -16 43 99 -28 246 -15 370 32 124 46 390 219 390 252 0 49
-321 237 -470 275 -70 19 -208 24 -278 11 l-43 -7 31 32 c50 54 87 118 116
203 23 68 28 102 32 222 4 139 -12 338 -29 348 -12 8 -244 -94 -338 -150 -145
-85 -248 -197 -290 -314 -20 -58 -31 -73 -31 -45 0 11 -16 53 -36 94 -45 94
-146 195 -263 264 -77 45 -319 156 -340 156 -5 0 -15 -39 -22 -87z m145 -54
c182 -112 282 -270 294 -463 5 -85 4 -89 -14 -82 -49 18 -133 77 -189 132 -70
69 -106 134 -135 248 -19 75 -27 196 -14 196 4 0 30 -14 58 -31z m1116 -14 c0
-71 -28 -194 -61 -264 -32 -70 -69 -116 -138 -174 -43 -36 -141 -97 -155 -97
-3 0 -6 33 -6 74 0 177 97 342 267 456 41 27 79 50 84 50 5 0 9 -20 9 -45z
m-304 -111 c-79 -103 -119 -229 -119 -369 1 -174 59 -311 183 -435 130 -130
278 -189 474 -191 97 -1 100 -1 68 -15 -99 -43 -253 -58 -357 -34 -257 58
-486 349 -488 620 -1 170 67 308 208 421 33 27 61 48 63 49 2 0 -13 -21 -32
-46z m-480 -66 c98 -102 144 -213 144 -348 0 -97 -20 -174 -70 -275 -153 -306
-440 -435 -740 -332 l-65 22 125 6 c98 5 141 11 198 32 193 68 343 216 403
399 34 104 35 292 1 388 -21 60 -57 130 -99 190 l-18 25 30 -22 c17 -11 58
-50 91 -85z m799 -143 c-31 -148 -118 -279 -239 -357 -33 -21 -65 -38 -72 -38
-7 0 -21 24 -32 53 l-20 52 56 29 c77 39 161 105 215 169 45 51 97 142 97 168
0 7 2 10 5 7 3 -3 -2 -41 -10 -83z m-1086 -126 c45 -45 107 -94 151 -119 41
-24 77 -45 79 -46 7 -5 -31 -104 -40 -104 -24 0 -97 47 -147 94 -96 90 -158
208 -177 336 l-7 45 33 -65 c21 -41 60 -92 108 -141z m-36 -274 c61 -16 177
-70 177 -83 0 -4 -17 -24 -36 -46 l-36 -38 -82 40 c-138 68 -273 99 -376 87
-70 -9 -61 0 32 30 88 29 232 33 321 10z m541 -45 c24 -62 89 -171 141 -234
l43 -53 -42 8 c-53 10 -279 10 -333 0 l-41 -8 54 71 c55 72 144 235 144 264 0
24 15 3 34 -48z m834 29 l63 -24 -93 -1 c-134 -1 -295 -48 -387 -113 l-29 -21
-41 49 -41 48 63 31 c104 51 158 62 287 58 92 -2 128 -8 178 -27z m-1553 -104
c77 -20 217 -85 212 -99 -5 -17 -126 -74 -192 -91 -82 -21 -206 -19 -297 4
-80 21 -198 75 -198 91 0 13 115 66 195 89 86 24 200 26 280 6z m1645 0 c68
-16 220 -82 220 -96 0 -14 -143 -78 -210 -93 -76 -18 -197 -20 -272 -5 -29 6
-91 29 -137 51 -97 46 -97 47 17 100 124 57 256 72 382 43z m-787 -271 c224
-49 393 -208 442 -415 25 -107 19 -119 -20 -43 -105 210 -304 338 -545 351
-110 6 -228 -13 -317 -52 -129 -58 -250 -172 -313 -299 -34 -68 -40 -49 -15
49 41 160 139 281 286 354 46 23 113 48 149 55 89 20 246 19 333 0z m-232
-363 c-36 -116 -106 -215 -196 -280 l-47 -34 35 46 c63 83 107 232 107 369 l0
77 48 6 c26 4 52 8 57 9 20 5 17 -124 -4 -193z m192 184 l47 -6 0 -88 c0 -130
49 -297 108 -364 8 -9 13 -20 9 -23 -13 -14 -154 143 -185 206 -35 70 -62 179
-62 248 0 37 3 43 18 39 9 -3 38 -8 65 -12z m-378 -235 c-25 -97 -58 -161
-114 -222 -53 -58 -190 -158 -217 -158 -19 0 -18 60 2 158 36 175 143 319 299
401 l40 21 3 -69 c2 -41 -4 -95 -13 -131z m555 169 c108 -57 228 -204 267
-324 8 -27 18 -92 20 -144 l6 -94 -39 23 c-170 102 -266 219 -302 370 -15 60
-27 200 -17 200 4 0 33 -14 65 -31z"/>
</g>
</svg>
