<?xml version="1.0" encoding="utf-8"?>
<!-- Generator: Adobe Illustrator 24.2.1, SVG Export Plug-In . SVG Version: 6.00 Build 0)  -->
<svg version="1.1" id="Calque_1" xmlns="http://www.w3.org/2000/svg" xmlns:xlink="http://www.w3.org/1999/xlink" x="0px" y="0px"
	 viewBox="0 0 26.7 26.7" style="enable-background:new 0 0 26.7 26.7;" xml:space="preserve">
<style type="text/css">
	.st0{fill:none;stroke:#FFFFFF;stroke-linecap:round;stroke-linejoin:round;}
	.st1{fill:none;stroke:#FFFFFF;stroke-linecap:round;stroke-linejoin:round;stroke-dasharray:1.53;}
</style>
<g id="Calque_2_1_">
	<g id="ear">
		<g id="clock_icon">
			<path id="Tracé_39" class="st0" d="M22.8,19.5v-7.3c0-4-2.5-7.5-6.2-8.9c-0.3-1.8-2-3.1-3.9-2.8c-1.4,0.2-2.5,1.3-2.8,2.8
				c-3.7,1.4-6.2,4.9-6.2,8.9v7.3c0,1.9-1.5,3.4-3.3,3.4c0,0,0,0,0,0h25.7C24.3,22.8,22.8,21.3,22.8,19.5
				C22.8,19.5,22.8,19.5,22.8,19.5z"/>
			<path id="Tracé_40" class="st1" d="M16.7,22.8c0.1,1.8-1.3,3.4-3.2,3.5S10.1,25,10,23.2c0-0.1,0-0.2,0-0.4"/>
		</g>
	</g>
</g>
</svg>
