<svg xmlns="http://www.w3.org/2000/svg" width="17.541" height="10.667" viewBox="0 0 17.541 10.667">
  <path id="Tracé_44" data-name="Tracé 44" d="M8.227,10.748.422,2.943a.931.931,0,0,1-.282-.684.931.931,0,0,1,.282-.684L1.307.69A.931.931,0,0,1,1.991.408.808.808,0,0,1,2.675.65L8.911,6.886,15.147.65a.808.808,0,0,1,.684-.241.931.931,0,0,1,.684.282l.885.885a.931.931,0,0,1,.282.684.931.931,0,0,1-.282.684L9.6,10.748a.888.888,0,0,1-1.368,0Z" transform="translate(-0.141 -0.403)" fill="#333" opacity="0.25"/>
</svg>
