<svg xmlns="http://www.w3.org/2000/svg" viewBox="0 0 63.68 82.12"><defs><style>.cls-1,.cls-2{fill:none;stroke:#1d1d1b;stroke-linecap:round;stroke-miterlimit:10;stroke-width:1.3px;}.cls-2{stroke-dasharray:2.41;}</style></defs><g id="Calque_2" data-name="Calque 2"><g id="ear"><path class="cls-1" d="M.65,70.81S3.92,81.18,9.92,81.45s8.73-2.73,12-7.36,15.28-18,15.28-18,10.36-12,5.72-33.27S14.56,8.63,14.56,8.63-4.22,14.08,4.49,37.54"/><path class="cls-1" d="M4.49,52.54S2.83,61.81,6.65,62.63s8.18-6.82,8.18-6.82,3.92-3.27,7.55-3.27,11.82-4.36,8.54-15-16.36-5.46-17.45-1.91S6.38,25.81,15.11,17.9,31.2,17.63,33.38,22"/><path class="cls-2" d="M48.6,26.52c.45-2.07,1-7.25-2.9-11.28"/><path class="cls-2" d="M53.16,33S60.84,17.69,46,6.37"/><path class="cls-2" d="M49.68.65s10,6.73,12.65,15.58-3,20.27-3,20.27"/></g></g></svg>