<svg xmlns="http://www.w3.org/2000/svg" width="13.125" height="13.125" viewBox="0 0 13.125 13.125">
  <path id="Tracé_37" data-name="Tracé 37" d="M12.156.813a1.356,1.356,0,0,1,1,.41,1.356,1.356,0,0,1,.41,1V12.531a1.4,1.4,0,0,1-1.406,1.406H8.143V9.484h1.7l.322-2.109H8.143V6q0-1.113,1.172-1.113h.908V3.1a9.155,9.155,0,0,0-1.611-.146,3.118,3.118,0,0,0-1.465.322,2.357,2.357,0,0,0-.937.967,3.135,3.135,0,0,0-.352,1.523V7.375H4.012V9.484H5.857v4.453H1.844a1.356,1.356,0,0,1-1-.41,1.356,1.356,0,0,1-.41-1V2.219a1.356,1.356,0,0,1,.41-1,1.356,1.356,0,0,1,1-.41Z" transform="translate(-0.438 -0.813)"/>
</svg>
