<svg xmlns="http://www.w3.org/2000/svg" viewBox="0 0 89.35 90.76"><defs><style>.cls-1,.cls-2{fill:none;stroke:#1d1d1b;stroke-miterlimit:10;stroke-width:1.3px;}.cls-1{stroke-linecap:round;stroke-dasharray:2.41;}</style></defs><g id="Calque_2" data-name="Calque 2"><g id="family_icon" data-name="family icon"><ellipse class="cls-1" cx="42.5" cy="9.81" rx="9.8" ry="9.16"/><ellipse class="cls-1" cx="73.72" cy="17.3" rx="8.74" ry="8.39"/><path class="cls-2" d="M82.47,31C78.71,27.2,70.26,27.32,66,29.67c-2.62,1.46-5.42,5-7,9.26A33,33,0,0,0,52.3,26c-5.4-6.1-10.8-4.22-12.44-4.22s-7.4,1.87-10.16,7.27-5.34,15.85-4.52,20.19a6.35,6.35,0,0,0,1,2.93A12.7,12.7,0,0,0,25,54S21.31,64.18,14.39,64.41,2.65,53.26,2.65,53.26-.17,49.86.89,54.32,3.47,64.65,9.1,68.05c0,0,1.29,3.52-2.11,12.09l2.58.59s.12,5.75,1.18,7.63,2.23,2,2.34-.7.24-7,.24-7l1.41.12s-.24,6.81.7,8S16.85,90,17.56,88s.7-7.75.7-7.75l2.7.24s-3.05-9.4-2.58-12.45c0,0,7.27-4,8.68-12.23A10.85,10.85,0,0,0,27.32,52l.33-.37c.7-.82,2.7-6.93,3.29-9.63s3.28-7.51,3.28-7.51c-.47,5.05-.94,48.83.94,54s3.29-3.76,4-7,3.56-21.71,3.56-21.71S46,84.37,48.07,88.48s2.59,0,3.53-7.28-2.23-49.07-.83-47.66,1.76,3.41,2.35,4.58,4.81,13,4.81,13c.18.33.46.73.81.74.94,0,1.6-2.72,2.6-5.79a27.72,27.72,0,0,1,6.45-10.33c-.11,8.57-7.39,31.34-7.39,31.34l6.22,1.06S66.39,84.72,68.15,88s1.52,1.17,2.7-1.29,1.87-18.67,1.87-18.67h1s.88,17.38,2.41,20.54,2.11.47,2.81-2.23,1.3-18.66,1.3-18.66l5-.7s-.35-2.12-3.4-14.44S79,36.36,79,36.36c3.75,3.29,5.63,9.16,6.92,12s1.88,6.58,2.7.59S86.22,34.72,82.47,31Z"/><circle class="cls-1" cx="14.2" cy="56.03" r="5.69" transform="translate(-20.36 9.7) rotate(-22.5)"/></g></g></svg>