<svg xmlns="http://www.w3.org/2000/svg" width="13.125" height="13.125" viewBox="0 0 13.125 13.125">
  <path id="Tracé_36" data-name="Tracé 36" d="M12.625.813a.834.834,0,0,1,.644.293.835.835,0,0,1,.293.645V13a1.008,1.008,0,0,1-.937.938H1.375A.926.926,0,0,1,.7,13.644.877.877,0,0,1,.438,13V1.75A.877.877,0,0,1,.7,1.105.926.926,0,0,1,1.375.813ZM4.393,12.063h.029V5.793H2.459v6.27ZM2.635,4.621a1.075,1.075,0,0,0,.791.322,1.075,1.075,0,0,0,.791-.322,1.093,1.093,0,0,0,.352-.791,1.032,1.032,0,0,0-.352-.791,1.066,1.066,0,0,0-1.582,0,1.075,1.075,0,0,0-.322.791A1.141,1.141,0,0,0,2.635,4.621Zm9.053,7.441V8.635a7.032,7.032,0,0,0-.088-1.2,2.792,2.792,0,0,0-.322-.908,1.4,1.4,0,0,0-.732-.645,2.609,2.609,0,0,0-1.172-.234A2.269,2.269,0,0,0,8.2,5.939a1.777,1.777,0,0,0-.674.7H7.5v-.85H5.623v6.27H7.586V8.957A2.5,2.5,0,0,1,7.82,7.785a.933.933,0,0,1,.908-.439,1.086,1.086,0,0,1,.586.146.641.641,0,0,1,.293.439,3.271,3.271,0,0,1,.117.527,4.138,4.138,0,0,1,.029.557v3.047Z" transform="translate(-0.438 -0.813)"/>
</svg>
