<svg id="logo" xmlns="http://www.w3.org/2000/svg" viewBox="0 0 158.6 36.8"><defs><style>.cls-1{fill:#ea92b2;}.cls-2{fill:#1d4e89;}</style></defs><path id="Tracé_1" data-name="Tracé 1" class="cls-1" d="M29,22.85c3.87,1.25,7.09.72,13.56-4.41l0-.07s-4.66-4-8.53-4.7A9,9,0,0,0,28.9,14a9,9,0,0,0,2.83-4.2c1.36-3.69.19-9.74.19-9.74l0-.07c-7.69,3-9.75,5.55-10.61,9.53C20.41,5.55,18.34,3,10.65,0l0,.07s-1.16,6.05.2,9.74A8.87,8.87,0,0,0,13.63,14a9,9,0,0,0-5.05-.35C4.7,14.33,0,18.36,0,18.36l0,.08c6.48,5.13,9.69,5.66,13.57,4.41-3,2.73-4.17,5.78-3,13.95h.08s5.83-2,8.35-5a9.08,9.08,0,0,0,2.23-4.55,8.92,8.92,0,0,0,2.23,4.55c2.52,3,8.34,5,8.34,5h.08C33.13,28.63,32,25.58,29,22.85Zm8.29-7a9.36,9.36,0,0,0-2.57-.39,12.14,12.14,0,0,0-6.63,2.35A10.2,10.2,0,0,1,26.6,16.1,9.47,9.47,0,0,1,37.26,15.89Zm3.49,2.55c-4.09,2.8-8.75,2.54-12,0a11.45,11.45,0,0,1,5.92-2.07A12.16,12.16,0,0,1,40.75,18.44Zm-14.81-3.5a9.58,9.58,0,0,1-.79-2.13A12.11,12.11,0,0,0,30.5,8.25a9,9,0,0,0,.95-2.41A9.47,9.47,0,0,1,25.94,15Zm5-13.4a12.13,12.13,0,0,1-1.25,6.27A11.54,11.54,0,0,1,25,11.9c-.57-4.06,1.53-8.22,6-10.36ZM27.29,3.06a10.59,10.59,0,0,0-2.1,12.37h0l.3.55q.15.27.33.54h0a10.6,10.6,0,0,0,11.78,4.36c-6.81,3.95-11.9,0-13.94-3.6h0l-.11-.17c0-.06-.06-.12-.1-.18h0C21.35,13.35,20.46,7,27.29,3.06Zm-2.13,17.6a12.85,12.85,0,0,0-3.9-.49,12.85,12.85,0,0,0-3.9.49,12.67,12.67,0,0,0,2.37-3.13,12.91,12.91,0,0,0,1.53-3.61,12.89,12.89,0,0,0,1.52,3.61,13,13,0,0,0,2.38,3.13ZM11.55,1.54c4.47,2.14,6.57,6.3,6,10.36A11.54,11.54,0,0,1,12.8,7.81,12.13,12.13,0,0,1,11.55,1.54Zm-.47,4.3a9.55,9.55,0,0,0,1,2.42,12.14,12.14,0,0,0,5.34,4.56A10.07,10.07,0,0,1,16.6,15a9.45,9.45,0,0,1-5.52-9.11ZM15.93,16.1a10.15,10.15,0,0,1-1.45,1.74A12.24,12.24,0,0,0,7.84,15.5a9.67,9.67,0,0,0-2.56.38A9.47,9.47,0,0,1,15.93,16.1Zm-8.08.29a11.59,11.59,0,0,1,5.92,2.06c-3.24,2.53-7.89,2.79-12,0a12.16,12.16,0,0,1,6.05-2.05ZM5,20.87a10.6,10.6,0,0,0,11.77-4.36h0l.33-.54c.1-.19.21-.37.3-.56h0a10.59,10.59,0,0,0-2.1-12.37c6.83,3.92,5.94,10.3,3.85,13.86h0l-.1.18-.11.17h0c-2,3.6-7.13,7.56-13.94,3.61ZM11.5,35.25c-.38-4.94,2.17-8.83,6-10.37A11.56,11.56,0,0,1,16.31,31,12.17,12.17,0,0,1,11.5,35.25Zm4-1.74a9.58,9.58,0,0,0,1.62-2,12.16,12.16,0,0,0,1.28-6.91,10.62,10.62,0,0,1,2.24-.39A9.45,9.45,0,0,1,15.46,33.51Zm6.48-9.33a10.11,10.11,0,0,1,2.24.39,12.08,12.08,0,0,0,1.28,6.91,9.53,9.53,0,0,0,1.61,2A9.46,9.46,0,0,1,21.94,24.18ZM31,35.25A12,12,0,0,1,26.23,31a11.47,11.47,0,0,1-1.17-6.15c3.8,1.54,6.36,5.43,6,10.37ZM21.9,23.3H20.64a10.59,10.59,0,0,0-9.67,8C11,23.43,16.93,21,21.06,21h.41c4.14,0,10.12,2.39,10.1,10.26A10.6,10.6,0,0,0,21.9,23.3Z"/><path id="Tracé_2" data-name="Tracé 2" class="cls-2" d="M53.1,14.73A3.57,3.57,0,0,1,51.53,12a3.4,3.4,0,0,1,1.22-2.61,5,5,0,0,1,3.47-1.08,5.18,5.18,0,0,1,3.65,1.28v2.74A13.8,13.8,0,0,0,58.05,10a2.56,2.56,0,0,0-1.73-.64,2.44,2.44,0,0,0-1.87.64,2.37,2.37,0,0,0-.6,1.61c0,.69.79,1.42,2.23,2.2a24.09,24.09,0,0,1,3.17,1.95,4.6,4.6,0,0,1,1.83,3.44,3.83,3.83,0,0,1-1.29,3,5.79,5.79,0,0,1-3.92,1.16,5.9,5.9,0,0,1-4.59-1.72V18a14.21,14.21,0,0,0,2.3,3.58,3,3,0,0,0,2.14.79A3.34,3.34,0,0,0,58,21.71a2.71,2.71,0,0,0,.72-2c-.06-1.17-.86-2.17-2.38-3A34.09,34.09,0,0,1,53.1,14.73Z"/><path id="Tracé_3" data-name="Tracé 3" class="cls-2" d="M67.18,23.24c-2.93-.06-4.47-1.8-4.63-5.25.16-3.32,1.7-5,4.63-5s4.22,1.64,4.22,4.92H65q0,4.17,2.7,4.17a2.91,2.91,0,0,0,2.8-1.95l.6.41A3.94,3.94,0,0,1,67.18,23.24Zm2-6.37C69.16,15,68.54,14,67.35,14s-1.94,1-2.3,2.88Z"/><path id="Tracé_4" data-name="Tracé 4" class="cls-2" d="M76,21.33A2.14,2.14,0,0,0,77.2,23.2H72.56a2.14,2.14,0,0,0,1.25-1.87V15.15c-.07-.67-.61-1.28-1.62-1.85.3,0,.63,0,1,0l.91,0c.57,0,1.18-.1,1.85-.19v1.46A4.53,4.53,0,0,1,79.49,13c1.94,0,2.92,1.11,2.92,3.34v5a2.13,2.13,0,0,0,1.35,1.87H79.12a2.18,2.18,0,0,0,1.15-1.87V16.42c0-1.42-.56-2.12-1.66-2.12A3.35,3.35,0,0,0,76,15.88v5.45Z"/><path id="Tracé_5" data-name="Tracé 5" class="cls-2" d="M86.26,15.15c-.06-.67-.6-1.28-1.61-1.85l1.91,0c.56,0,1.18-.1,1.84-.19v8.26a2.13,2.13,0,0,0,1.33,1.87H85a2.16,2.16,0,0,0,1.25-1.87Zm2.16-6a1.34,1.34,0,0,1-.41,1,1.57,1.57,0,0,1-2.12,0,1.3,1.3,0,0,1-.07-1.84l.07-.07a1.57,1.57,0,0,1,2.12,0A1.32,1.32,0,0,1,88.42,9.11Z"/><path id="Tracé_6" data-name="Tracé 6" class="cls-2" d="M96.21,13q5,0,5,5.12t-5,5.13q-5,0-5-5.13T96.21,13Zm0,1q-2.76,0-2.76,4c0,2.8,1,4.21,2.84,4.21S99,20.87,99,18.1,98,14,96.17,14Z"/><path id="Tracé_7" data-name="Tracé 7" class="cls-2" d="M106.41,15.4q.95-2.34,2.43-2.34c1,0,1.5.42,1.57,1.28s-.37,1.3-1.12,1.37a1.25,1.25,0,0,1-1.26-1c0-.08-.06-.12-.13-.12-.4,0-.9.71-1.49,2.12v4.6a2.12,2.12,0,0,0,1.24,1.86H103a2.14,2.14,0,0,0,1.23-1.86V15.15c0-.65-.58-1.26-1.6-1.84l1.9,0c.57,0,1.18-.11,1.83-.19Z"/><path id="Tracé_8" data-name="Tracé 8" class="cls-2" d="M112.86,15.15c-.06-.67-.6-1.28-1.62-1.85l1.91,0c.57,0,1.19-.1,1.85-.19v8.26a2.13,2.13,0,0,0,1.33,1.87h-4.71a2.15,2.15,0,0,0,1.24-1.87Zm2.16-6a1.34,1.34,0,0,1-.41,1,1.57,1.57,0,0,1-2.12,0,1.3,1.3,0,0,1-.07-1.84.46.46,0,0,1,.07-.07,1.57,1.57,0,0,1,2.12,0A1.32,1.32,0,0,1,115,9.11Z"/><path id="Tracé_9" data-name="Tracé 9" class="cls-2" d="M124.72,16.27A17,17,0,0,0,123,14.15a2.49,2.49,0,0,0-1.41-.37c-.92.1-1.42.51-1.5,1.25s.9,1.38,2.68,2,2.69,1.61,2.74,2.9q0,3.36-4.09,3.36a4.73,4.73,0,0,1-3.4-1V19.67a17.76,17.76,0,0,1,1.68,2.08c.19.33.74.55,1.64.66,1.42-.06,2.15-.66,2.18-1.83a1.79,1.79,0,0,0-.71-1.39,5,5,0,0,0-2.11-.93c-1.85-.47-2.79-1.25-2.85-2.34a2.54,2.54,0,0,1,1.06-2.12,4.5,4.5,0,0,1,2.82-.81,4.06,4.06,0,0,1,3,1.08v2.2Z"/><path id="Tracé_10" data-name="Tracé 10" class="cls-2" d="M134.11,16.27a18.94,18.94,0,0,0-1.77-2.12,2.49,2.49,0,0,0-1.41-.37c-.93.1-1.43.51-1.5,1.25s.89,1.38,2.68,2,2.68,1.61,2.74,2.9c0,2.24-1.37,3.36-4.09,3.36a4.76,4.76,0,0,1-3.41-1V19.67A16.79,16.79,0,0,1,129,21.75q.3.49,1.65.66c1.42-.06,2.15-.66,2.18-1.83a1.79,1.79,0,0,0-.71-1.39,5,5,0,0,0-2.12-.93c-1.84-.47-2.79-1.25-2.84-2.34a2.54,2.54,0,0,1,1.06-2.12,4.48,4.48,0,0,1,2.82-.81,4.07,4.07,0,0,1,3,1.08v2.2Z"/><path id="Tracé_11" data-name="Tracé 11" class="cls-2" d="M138,15.15c-.07-.67-.61-1.28-1.62-1.85l1.91,0c.57,0,1.18-.1,1.85-.19v8.26a2.09,2.09,0,0,0,1.33,1.87h-4.72A2.14,2.14,0,0,0,138,21.33Zm2.16-6a1.31,1.31,0,0,1-.42,1,1.57,1.57,0,0,1-2.12,0,1.32,1.32,0,0,1-.07-1.84l.07-.07a1.57,1.57,0,0,1,2.12,0A1.29,1.29,0,0,1,140.15,9.11Z"/><path id="Tracé_12" data-name="Tracé 12" class="cls-2" d="M146.17,21.33a2.13,2.13,0,0,0,1.35,1.87H142.8A2.16,2.16,0,0,0,144,21.33V15.15c-.07-.67-.6-1.28-1.6-1.85l1.91,0c.57,0,1.18-.1,1.83-.19v1.48a3.48,3.48,0,0,1,3-1.56c1.4,0,2.19.53,2.38,1.56A4,4,0,0,1,154.66,13c1.81,0,2.72,1,2.72,3.13v5.21a2.15,2.15,0,0,0,1.22,1.87h-4.48a2.14,2.14,0,0,0,1.16-1.87V16.42c0-1.39-.43-2.08-1.29-2.08-.66,0-1.38.53-2.15,1.6v5.39a2.13,2.13,0,0,0,1.24,1.87H148.6a2.14,2.14,0,0,0,1.14-1.87V16.42c0-1.39-.43-2.08-1.29-2.08-.69,0-1.45.53-2.28,1.6v5.39Z"/></svg>