<svg xmlns="http://www.w3.org/2000/svg" width="15" height="12.188" viewBox="0 0 15 12.188">
  <path id="Tracé_38" data-name="Tracé 38" d="M13.447,3.328a1.747,1.747,0,0,1,.029.381,8.743,8.743,0,0,1-.586,3.105,9.829,9.829,0,0,1-1.67,2.813,7.832,7.832,0,0,1-2.754,2.051,8.776,8.776,0,0,1-3.75.791A8.535,8.535,0,0,1,0,11.092q.322.029.732.029A6.1,6.1,0,0,0,4.57,9.8a2.971,2.971,0,0,1-1.816-.586A3.178,3.178,0,0,1,1.7,7.693q.293.029.557.029a3.905,3.905,0,0,0,.82-.088,2.989,2.989,0,0,1-1.26-.586A3.257,3.257,0,0,1,.938,5.994,3.037,3.037,0,0,1,.615,4.617V4.559a2.9,2.9,0,0,0,1.377.41A2.956,2.956,0,0,1,.615,2.391,2.97,2.97,0,0,1,1.055.838,8.529,8.529,0,0,0,3.838,3.123a8.621,8.621,0,0,0,3.545.938,4.27,4.27,0,0,1-.059-.7A3.009,3.009,0,0,1,8.2,1.189a3.079,3.079,0,0,1,4.424.059A6.258,6.258,0,0,0,14.59.516a3.053,3.053,0,0,1-1.348,1.7A6.608,6.608,0,0,0,15,1.717,6.763,6.763,0,0,1,13.447,3.328Z" transform="translate(0 -0.281)"/>
</svg>
