<svg xmlns="http://www.w3.org/2000/svg" viewBox="0 0 95.25 73.84"><defs><style>.cls-1,.cls-2{fill:none;stroke:#1d1d1b;stroke-linecap:round;stroke-miterlimit:10;stroke-width:1.3px;}.cls-2{stroke-dasharray:2.41;}</style></defs><g id="Calque_2" data-name="Calque 2"><g id="hand"><path class="cls-1" d="M87.78,73.19S72.23,63.51,53,67.33c0,0-5.59,2.86-11.32,1.77S11.14,56.42,6.64,56s-7.36-1.64-5.32-4.23c1.35-1.7,4.22-1.91,14.18-.41,2.26.34,5.22.82,8.7,1.48"/><path class="cls-1" d="M58.05,57.51a67,67,0,0,0-10.24,1.63c-3.69,1.09-9,1.09-11.85-.81s-6.27-.69-8.73-2.6,0-4.36,1.23-5.45,8.59-1.5,12.55-1.09a12,12,0,0,0,7.36-2S53.28,44,62.14,43.05a23,23,0,0,1,14.59,3s6.28,4.64,8.73,4.77,9.14,2.6,9.14,2.6"/><path class="cls-2" d="M33.32,10.64C37.63,3.69,44.22-.17,50.1.8a12.19,12.19,0,0,1,7,4c4.73,5.74,2.15,15.24-1.28,18.68-4.55,4.55-24.69,20-24.69,20C22.44,35,15.86,27.91,11.33,22.8c-1.74-2-4.38-4.9-4.79-9.21C6.46,12.8,6,6.64,10.65,2.94,15-.47,20.28.88,21.29,1.14c5.92,1.49,8.93,6.66,10.18,9.55"/></g></g></svg>